<svg width="316" height="232" viewBox="0 0 316 232" fill="none" xmlns="http://www.w3.org/2000/svg">
<rect width="316" height="232" fill="white"/>
<path d="M96.1127 161H101.525C101.685 161 101.981 160.996 102.413 160.988C102.853 160.98 103.273 160.948 103.673 160.892C105.025 160.716 106.161 160.232 107.081 159.44C108.009 158.64 108.709 157.628 109.181 156.404C109.653 155.172 109.889 153.824 109.889 152.36C109.889 150.888 109.653 149.54 109.181 148.316C108.709 147.084 108.009 146.072 107.081 145.28C106.161 144.48 105.025 143.996 103.673 143.828C103.273 143.772 102.853 143.74 102.413 143.732C101.981 143.724 101.685 143.72 101.525 143.72H96.1127V161ZM98.6807 158.612V146.108H101.525C101.789 146.108 102.109 146.116 102.485 146.132C102.869 146.14 103.205 146.172 103.493 146.228C104.357 146.388 105.061 146.764 105.605 147.356C106.157 147.94 106.565 148.668 106.829 149.54C107.093 150.404 107.225 151.344 107.225 152.36C107.225 153.344 107.097 154.272 106.841 155.144C106.585 156.016 106.181 156.752 105.629 157.352C105.085 157.944 104.373 158.324 103.493 158.492C103.205 158.548 102.873 158.584 102.497 158.6C102.129 158.608 101.805 158.612 101.525 158.612H98.6807ZM112.203 145.916H114.711V143.48H112.203V145.916ZM112.203 161H114.711V148.04H112.203V161ZM121.255 161.36C123.319 161.36 124.875 160.612 125.923 159.116V161H128.143V153.02C128.143 152.476 128.119 151.968 128.071 151.496C128.023 151.024 127.895 150.576 127.687 150.152C127.287 149.296 126.655 148.672 125.791 148.28C124.935 147.88 123.927 147.68 122.767 147.68C121.271 147.68 120.071 148.008 119.167 148.664C118.263 149.32 117.655 150.204 117.343 151.316L119.683 152.036C119.907 151.316 120.303 150.796 120.871 150.476C121.439 150.156 122.063 149.996 122.743 149.996C123.751 149.996 124.479 150.212 124.927 150.644C125.383 151.068 125.631 151.728 125.671 152.624C124.615 152.768 123.583 152.92 122.575 153.08C121.567 153.232 120.687 153.416 119.935 153.632C118.935 153.952 118.175 154.428 117.655 155.06C117.135 155.692 116.875 156.496 116.875 157.472C116.875 158.176 117.039 158.824 117.367 159.416C117.703 160 118.195 160.472 118.843 160.832C119.499 161.184 120.303 161.36 121.255 161.36ZM121.699 159.308C120.899 159.308 120.307 159.124 119.923 158.756C119.547 158.388 119.359 157.952 119.359 157.448C119.359 156.936 119.527 156.532 119.863 156.236C120.207 155.94 120.635 155.704 121.147 155.528C121.691 155.368 122.331 155.228 123.067 155.108C123.811 154.988 124.671 154.856 125.647 154.712C125.639 155.016 125.619 155.356 125.587 155.732C125.555 156.108 125.487 156.444 125.383 156.74C125.287 157.164 125.083 157.572 124.771 157.964C124.467 158.356 124.055 158.68 123.535 158.936C123.023 159.184 122.411 159.308 121.699 159.308ZM135.687 161.36C136.423 161.36 137.087 161.248 137.679 161.024C138.271 160.808 138.795 160.5 139.251 160.1V161.324C139.267 162.436 138.979 163.276 138.387 163.844C137.803 164.42 136.975 164.708 135.903 164.708C135.327 164.708 134.779 164.58 134.259 164.324C133.739 164.068 133.339 163.664 133.059 163.112L130.743 164.288C131.271 165.208 131.999 165.908 132.927 166.388C133.855 166.876 134.839 167.12 135.879 167.12C137.391 167.12 138.655 166.804 139.671 166.172C140.687 165.548 141.331 164.58 141.603 163.268C141.667 162.964 141.711 162.652 141.735 162.332C141.759 162.02 141.771 161.692 141.771 161.348V148.04H139.551V149.204C139.087 148.724 138.535 148.352 137.895 148.088C137.255 147.816 136.535 147.68 135.735 147.68C134.519 147.68 133.467 147.98 132.579 148.58C131.699 149.172 131.019 149.984 130.539 151.016C130.059 152.04 129.819 153.204 129.819 154.508C129.819 155.804 130.055 156.968 130.527 158C131.007 159.032 131.687 159.852 132.567 160.46C133.447 161.06 134.487 161.36 135.687 161.36ZM136.035 159.092C135.235 159.092 134.571 158.888 134.043 158.48C133.515 158.072 133.123 157.524 132.867 156.836C132.611 156.14 132.483 155.364 132.483 154.508C132.483 153.66 132.611 152.892 132.867 152.204C133.131 151.516 133.531 150.968 134.067 150.56C134.603 150.152 135.287 149.948 136.119 149.948C137.303 149.948 138.171 150.372 138.723 151.22C139.275 152.068 139.551 153.164 139.551 154.508C139.551 155.852 139.275 156.952 138.723 157.808C138.171 158.664 137.275 159.092 136.035 159.092ZM144.408 161H146.952V154.256C146.952 153.232 147.1 152.416 147.396 151.808C147.7 151.192 148.1 150.748 148.596 150.476C149.092 150.204 149.64 150.068 150.24 150.068C150.928 150.068 151.488 150.208 151.92 150.488C152.352 150.768 152.684 151.136 152.916 151.592C153.148 152.048 153.304 152.544 153.384 153.08C153.472 153.608 153.516 154.124 153.516 154.628V161H156.06V153.8C156.06 153.4 156.024 152.936 155.952 152.408C155.88 151.88 155.744 151.34 155.544 150.788C155.344 150.236 155.052 149.728 154.668 149.264C154.292 148.792 153.8 148.412 153.192 148.124C152.584 147.836 151.832 147.692 150.936 147.692C150 147.692 149.168 147.86 148.44 148.196C147.72 148.532 147.124 148.996 146.652 149.588V148.04H144.408V161ZM163.93 161.36C165.218 161.36 166.338 161.072 167.29 160.496C168.242 159.912 168.978 159.108 169.498 158.084C170.026 157.052 170.29 155.86 170.29 154.508C170.29 153.172 170.03 151.992 169.51 150.968C168.99 149.936 168.254 149.132 167.302 148.556C166.35 147.972 165.226 147.68 163.93 147.68C162.658 147.68 161.546 147.968 160.594 148.544C159.642 149.12 158.902 149.92 158.374 150.944C157.846 151.968 157.582 153.156 157.582 154.508C157.582 155.844 157.842 157.028 158.362 158.06C158.882 159.092 159.614 159.9 160.558 160.484C161.51 161.068 162.634 161.36 163.93 161.36ZM163.93 158.996C162.722 158.996 161.806 158.592 161.182 157.784C160.558 156.968 160.246 155.876 160.246 154.508C160.246 153.188 160.546 152.116 161.146 151.292C161.746 150.46 162.674 150.044 163.93 150.044C165.154 150.044 166.074 150.448 166.69 151.256C167.314 152.064 167.626 153.148 167.626 154.508C167.626 155.836 167.318 156.916 166.702 157.748C166.094 158.58 165.17 158.996 163.93 158.996ZM176.928 161.348C178.568 161.348 179.852 160.984 180.78 160.256C181.716 159.528 182.184 158.524 182.184 157.244C182.184 156.572 182.044 156.004 181.764 155.54C181.492 155.076 181.036 154.676 180.396 154.34C179.756 153.996 178.892 153.684 177.804 153.404C176.788 153.148 176.02 152.928 175.5 152.744C174.988 152.552 174.64 152.36 174.456 152.168C174.272 151.968 174.18 151.724 174.18 151.436C174.18 150.94 174.416 150.552 174.888 150.272C175.36 149.984 175.976 149.856 176.736 149.888C177.528 149.92 178.172 150.12 178.668 150.488C179.164 150.848 179.456 151.336 179.544 151.952L182.112 151.484C181.968 150.332 181.404 149.412 180.42 148.724C179.436 148.028 178.2 147.68 176.712 147.68C175.192 147.68 173.972 148.036 173.052 148.748C172.132 149.452 171.672 150.392 171.672 151.568C171.672 152.2 171.808 152.74 172.08 153.188C172.36 153.628 172.824 154.012 173.472 154.34C174.128 154.668 175.012 154.98 176.124 155.276C177.14 155.548 177.896 155.776 178.392 155.96C178.888 156.144 179.212 156.34 179.364 156.548C179.524 156.748 179.604 157.012 179.604 157.34C179.604 157.9 179.38 158.34 178.932 158.66C178.492 158.98 177.88 159.14 177.096 159.14C176.232 159.14 175.508 158.948 174.924 158.564C174.348 158.18 173.98 157.648 173.82 156.968L171.252 157.364C171.476 158.628 172.084 159.608 173.076 160.304C174.068 161 175.352 161.348 176.928 161.348ZM191.536 161V158.876C190.688 159.004 189.948 159.032 189.316 158.96C188.692 158.88 188.236 158.596 187.948 158.108C187.796 157.844 187.712 157.52 187.696 157.136C187.688 156.752 187.684 156.3 187.684 155.78V150.056H191.536V148.04H187.684V144.44H185.164V148.04H182.68V150.056H185.164V155.9C185.164 156.604 185.172 157.236 185.188 157.796C185.212 158.348 185.364 158.892 185.644 159.428C185.964 160.028 186.432 160.468 187.048 160.748C187.664 161.028 188.364 161.18 189.148 161.204C189.932 161.228 190.728 161.16 191.536 161ZM193.788 145.916H196.296V143.48H193.788V145.916ZM193.788 161H196.296V148.04H193.788V161ZM204.724 161.36C206.116 161.36 207.3 161.024 208.276 160.352C209.252 159.68 209.952 158.708 210.376 157.436L207.832 156.836C207.568 157.532 207.184 158.068 206.68 158.444C206.184 158.812 205.532 158.996 204.724 158.996C203.54 158.996 202.644 158.584 202.036 157.76C201.436 156.936 201.132 155.856 201.124 154.52C201.132 153.224 201.424 152.156 202 151.316C202.584 150.468 203.492 150.044 204.724 150.044C205.452 150.044 206.096 150.248 206.656 150.656C207.224 151.056 207.632 151.62 207.88 152.348L210.376 151.628C210.056 150.412 209.392 149.452 208.384 148.748C207.384 148.036 206.176 147.68 204.76 147.68C203.456 147.68 202.332 147.972 201.388 148.556C200.452 149.14 199.732 149.948 199.228 150.98C198.724 152.004 198.468 153.184 198.46 154.52C198.468 155.832 198.716 157.004 199.204 158.036C199.7 159.068 200.412 159.88 201.34 160.472C202.276 161.064 203.404 161.36 204.724 161.36ZM217.056 161.348C218.696 161.348 219.98 160.984 220.908 160.256C221.844 159.528 222.312 158.524 222.312 157.244C222.312 156.572 222.172 156.004 221.892 155.54C221.62 155.076 221.164 154.676 220.524 154.34C219.884 153.996 219.02 153.684 217.932 153.404C216.916 153.148 216.148 152.928 215.628 152.744C215.116 152.552 214.768 152.36 214.584 152.168C214.4 151.968 214.308 151.724 214.308 151.436C214.308 150.94 214.544 150.552 215.016 150.272C215.488 149.984 216.104 149.856 216.864 149.888C217.656 149.92 218.3 150.12 218.796 150.488C219.292 150.848 219.584 151.336 219.672 151.952L222.24 151.484C222.096 150.332 221.532 149.412 220.548 148.724C219.564 148.028 218.328 147.68 216.84 147.68C215.32 147.68 214.1 148.036 213.18 148.748C212.26 149.452 211.8 150.392 211.8 151.568C211.8 152.2 211.936 152.74 212.208 153.188C212.488 153.628 212.952 154.012 213.6 154.34C214.256 154.668 215.14 154.98 216.252 155.276C217.268 155.548 218.024 155.776 218.52 155.96C219.016 156.144 219.34 156.34 219.492 156.548C219.652 156.748 219.732 157.012 219.732 157.34C219.732 157.9 219.508 158.34 219.06 158.66C218.62 158.98 218.008 159.14 217.224 159.14C216.36 159.14 215.636 158.948 215.052 158.564C214.476 158.18 214.108 157.648 213.948 156.968L211.38 157.364C211.604 158.628 212.212 159.608 213.204 160.304C214.196 161 215.48 161.348 217.056 161.348Z" fill="#1E1B1B"/>
<path d="M136.253 96.0167C136.468 95.7483 136.789 95.5917 137.126 95.5917H141.408C142.465 92.7424 143.842 89.9508 145.406 88.897C150.82 85.2565 165.178 85.2565 170.592 88.897C172.158 89.9519 173.529 92.747 174.591 95.5917H178.873C179.213 95.5917 179.533 95.7483 179.746 96.0167C179.96 96.2839 180.046 96.6374 179.976 96.9772L179.342 100.119C179.234 100.654 178.772 101.037 178.239 101.037H176.97C178.195 102.481 178.789 104.3 178.797 106.119C178.804 108.367 177.97 110.399 176.443 111.836C176.426 111.851 176.409 111.862 176.394 111.876V116.272C176.394 117.225 175.636 118 174.704 118H170.754C169.821 118 169.064 117.225 169.064 116.272V114.506H146.936V116.272C146.936 117.225 146.179 118 145.246 118H141.297C140.366 118 139.607 117.225 139.607 116.272V111.963C137.987 110.446 137.213 108.359 137.203 106.276C137.196 104.394 137.817 102.509 139.113 101.035H137.76C137.225 101.035 136.763 100.652 136.657 100.116L136.022 96.9749C135.957 96.6374 136.039 96.2862 136.253 96.0167ZM168.736 91.7819C164.421 88.8785 151.579 88.8785 147.266 91.7819C146.428 92.344 145.35 94.6162 144.362 97.3987H171.638C170.652 94.6174 169.574 92.3463 168.736 91.7819ZM173.79 106.552C173.79 104.675 172.301 103.155 170.465 103.155C168.628 103.155 167.141 104.675 167.141 106.552C167.141 108.429 168.628 109.951 170.465 109.951C172.301 109.951 173.79 108.429 173.79 106.552ZM145.491 109.951C147.326 109.951 148.816 108.429 148.816 106.552C148.816 104.675 147.326 103.155 145.491 103.155C143.653 103.155 142.166 104.675 142.166 106.552C142.166 108.429 143.656 109.951 145.491 109.951Z" fill="#1E1B1B"/>
<mask id="mask0_482_1525" style="mask-type:alpha" maskUnits="userSpaceOnUse" x="142" y="69" width="25" height="28">
<path d="M162.555 83.4818C162.505 84.0402 162.198 84.5656 161.683 84.8602C161.256 85.1048 160.816 85.2847 160.366 85.4064C160.62 86.2806 161.085 87.5457 161.914 88.9007C162.701 90.1883 162.711 91.7423 161.939 93.1645C160.802 95.2606 158.292 96.6691 155.691 96.6691C153.905 96.6691 152.317 95.8283 151.221 94.3014C149.653 92.1184 149.306 88.8968 150.292 85.6853C151.206 82.7082 149.983 81.12 149.174 80.4373C148.515 81.0871 147.62 81.4878 146.632 81.4878C144.606 81.4878 142.962 79.8082 142.962 77.7362C142.962 75.6641 144.606 73.985 146.632 73.985C148.658 73.985 150.301 75.6646 150.301 77.7362C150.301 78.0279 150.265 78.3102 150.204 78.5828C151.732 79.7252 153.495 82.2966 152.261 86.3169C151.483 88.852 151.722 91.4327 152.885 93.0525C153.379 93.74 154.266 94.5593 155.692 94.5593C157.535 94.5593 159.362 93.5648 160.134 92.1416C160.419 91.6166 160.654 90.8214 160.163 90.0185C159.067 88.2249 158.519 86.5512 158.259 85.5282C157.649 85.4344 157.055 85.2335 156.483 84.9212C155.973 84.6428 155.66 84.1389 155.591 83.5943C153.166 81.3538 152.047 77.3169 151.983 77.0806C151.852 76.596 152.075 76.0984 152.492 75.8715C152.157 72.8409 153.254 71.3135 153.916 70.6913C153.866 70.4001 153.98 70.0886 154.23 69.9217L155.446 69.1089C155.764 68.8967 156.164 69.0038 156.338 69.3495L156.918 70.4948C157.092 70.8406 156.938 71.2093 156.574 71.3193L155.198 71.7338C154.849 71.8389 154.432 71.6685 154.234 71.3561C153.686 71.9464 152.897 73.2607 153.169 75.7678C153.542 75.8405 153.863 76.1189 153.971 76.5191C154.302 77.7317 155.256 80.2363 156.673 81.7382C157.125 81.56 157.643 81.5688 158.103 81.8192C158.403 81.9828 158.696 82.0652 158.996 82.0716H159.058C159.375 82.0647 159.685 81.9734 160.002 81.7922C160.45 81.5349 160.961 81.5123 161.412 81.6748C162.797 80.1668 163.731 77.7152 164.056 76.5193C164.165 76.1201 164.487 75.8411 164.859 75.7684C165.132 73.2613 164.343 71.9471 163.794 71.3568C163.596 71.6691 163.179 71.8396 162.83 71.7344L161.455 71.3199C161.091 71.2099 160.936 70.8406 161.111 70.4953L161.69 69.35C161.865 69.0042 162.264 68.8972 162.581 69.1094L163.799 69.9228C164.049 70.0897 164.163 70.4011 164.113 70.6923C164.774 71.3146 165.872 72.8414 165.537 75.8725C165.954 76.0994 166.176 76.5969 166.046 77.0821C165.983 77.3134 164.897 81.2217 162.555 83.4818ZM146.632 76.2708C145.841 76.2708 145.199 76.9265 145.199 77.7363C145.199 78.5456 145.841 79.2018 146.632 79.2018C147.423 79.2018 148.065 78.5456 148.065 77.7363C148.065 76.9264 147.424 76.2708 146.632 76.2708Z" fill="black"/>
</mask>
<g mask="url(#mask0_482_1525)">
<path d="M187.515 66.3444H154.486L151.1 75.2122L154.486 88.5377H187.515V66.3444Z" fill="#1E1B1B"/>
</g>
</svg>
