<svg width="316" height="232" viewBox="0 0 316 232" fill="none" xmlns="http://www.w3.org/2000/svg">
<rect width="316" height="232" fill="white"/>
<path d="M86.0781 161H97.1181V158.636H88.5861V153.296H95.6781V150.932H88.5861V146.084H97.1181V143.72H86.0781V161ZM99.268 161H101.812V154.256C101.812 153.232 101.96 152.416 102.256 151.808C102.56 151.192 102.96 150.748 103.456 150.476C103.952 150.204 104.5 150.068 105.1 150.068C105.788 150.068 106.348 150.208 106.78 150.488C107.212 150.768 107.544 151.136 107.776 151.592C108.008 152.048 108.164 152.544 108.244 153.08C108.332 153.608 108.376 154.124 108.376 154.628V161H110.92V153.8C110.92 153.4 110.884 152.936 110.812 152.408C110.74 151.88 110.604 151.34 110.404 150.788C110.204 150.236 109.912 149.728 109.528 149.264C109.152 148.792 108.66 148.412 108.052 148.124C107.444 147.836 106.692 147.692 105.796 147.692C104.86 147.692 104.028 147.86 103.3 148.196C102.58 148.532 101.984 148.996 101.512 149.588V148.04H99.268V161ZM118.474 161.36C119.21 161.36 119.874 161.248 120.466 161.024C121.058 160.808 121.582 160.5 122.038 160.1V161.324C122.054 162.436 121.766 163.276 121.174 163.844C120.59 164.42 119.762 164.708 118.69 164.708C118.114 164.708 117.566 164.58 117.046 164.324C116.526 164.068 116.126 163.664 115.846 163.112L113.53 164.288C114.058 165.208 114.786 165.908 115.714 166.388C116.642 166.876 117.626 167.12 118.666 167.12C120.178 167.12 121.442 166.804 122.458 166.172C123.474 165.548 124.118 164.58 124.39 163.268C124.454 162.964 124.498 162.652 124.522 162.332C124.546 162.02 124.558 161.692 124.558 161.348V148.04H122.338V149.204C121.874 148.724 121.322 148.352 120.682 148.088C120.042 147.816 119.322 147.68 118.522 147.68C117.306 147.68 116.254 147.98 115.366 148.58C114.486 149.172 113.806 149.984 113.326 151.016C112.846 152.04 112.606 153.204 112.606 154.508C112.606 155.804 112.842 156.968 113.314 158C113.794 159.032 114.474 159.852 115.354 160.46C116.234 161.06 117.274 161.36 118.474 161.36ZM118.822 159.092C118.022 159.092 117.358 158.888 116.83 158.48C116.302 158.072 115.91 157.524 115.654 156.836C115.398 156.14 115.27 155.364 115.27 154.508C115.27 153.66 115.398 152.892 115.654 152.204C115.918 151.516 116.318 150.968 116.854 150.56C117.39 150.152 118.074 149.948 118.906 149.948C120.09 149.948 120.958 150.372 121.51 151.22C122.062 152.068 122.338 153.164 122.338 154.508C122.338 155.852 122.062 156.952 121.51 157.808C120.958 158.664 120.062 159.092 118.822 159.092ZM127.447 145.916H129.955V143.48H127.447V145.916ZM127.447 161H129.955V148.04H127.447V161ZM132.827 161H135.371V154.256C135.371 153.232 135.519 152.416 135.815 151.808C136.119 151.192 136.519 150.748 137.015 150.476C137.511 150.204 138.059 150.068 138.659 150.068C139.347 150.068 139.907 150.208 140.339 150.488C140.771 150.768 141.103 151.136 141.335 151.592C141.567 152.048 141.723 152.544 141.803 153.08C141.891 153.608 141.935 154.124 141.935 154.628V161H144.479V153.8C144.479 153.4 144.443 152.936 144.371 152.408C144.299 151.88 144.163 151.34 143.963 150.788C143.763 150.236 143.471 149.728 143.087 149.264C142.711 148.792 142.219 148.412 141.611 148.124C141.003 147.836 140.251 147.692 139.355 147.692C138.419 147.692 137.587 147.86 136.859 148.196C136.139 148.532 135.543 148.996 135.071 149.588V148.04H132.827V161ZM152.468 161.36C153.724 161.36 154.864 161.044 155.888 160.412C156.912 159.772 157.676 158.872 158.18 157.712L155.72 156.932C155.064 158.308 153.94 158.996 152.348 158.996C151.26 158.996 150.404 158.668 149.78 158.012C149.156 157.356 148.792 156.428 148.688 155.228H158.348C158.436 153.676 158.252 152.336 157.796 151.208C157.34 150.08 156.648 149.212 155.72 148.604C154.792 147.988 153.668 147.68 152.348 147.68C151.084 147.68 149.976 147.964 149.024 148.532C148.072 149.1 147.328 149.904 146.792 150.944C146.264 151.984 146 153.212 146 154.628C146 155.964 146.268 157.14 146.804 158.156C147.348 159.164 148.104 159.952 149.072 160.52C150.048 161.08 151.18 161.36 152.468 161.36ZM152.444 149.9C154.404 149.9 155.516 151.024 155.78 153.272H148.748C148.908 152.176 149.296 151.34 149.912 150.764C150.528 150.188 151.372 149.9 152.444 149.9ZM164.405 161H166.913V154.796H171.497L174.509 161H177.377L174.113 154.304C175.097 153.88 175.833 153.22 176.321 152.324C176.809 151.428 177.053 150.404 177.053 149.252C177.053 147.852 176.693 146.652 175.973 145.652C175.253 144.652 174.169 144.04 172.721 143.816C172.497 143.776 172.261 143.752 172.013 143.744C171.765 143.728 171.557 143.72 171.389 143.72H164.405V161ZM166.913 152.42V146.084H171.293C171.453 146.084 171.629 146.092 171.821 146.108C172.021 146.124 172.209 146.156 172.385 146.204C173.153 146.38 173.697 146.772 174.017 147.38C174.337 147.988 174.497 148.612 174.497 149.252C174.497 149.884 174.337 150.508 174.017 151.124C173.697 151.732 173.153 152.128 172.385 152.312C172.209 152.352 172.021 152.38 171.821 152.396C171.629 152.412 171.453 152.42 171.293 152.42H166.913ZM185.043 161.36C186.299 161.36 187.439 161.044 188.463 160.412C189.487 159.772 190.251 158.872 190.755 157.712L188.295 156.932C187.639 158.308 186.515 158.996 184.923 158.996C183.835 158.996 182.979 158.668 182.355 158.012C181.731 157.356 181.367 156.428 181.263 155.228H190.923C191.011 153.676 190.827 152.336 190.371 151.208C189.915 150.08 189.223 149.212 188.295 148.604C187.367 147.988 186.243 147.68 184.923 147.68C183.659 147.68 182.551 147.964 181.599 148.532C180.647 149.1 179.903 149.904 179.367 150.944C178.839 151.984 178.575 153.212 178.575 154.628C178.575 155.964 178.843 157.14 179.379 158.156C179.923 159.164 180.679 159.952 181.647 160.52C182.623 161.08 183.755 161.36 185.043 161.36ZM185.019 149.9C186.979 149.9 188.091 151.024 188.355 153.272H181.323C181.483 152.176 181.871 151.34 182.487 150.764C183.103 150.188 183.947 149.9 185.019 149.9ZM192.531 166.76H195.051V160.088C195.507 160.496 196.031 160.808 196.623 161.024C197.223 161.248 197.891 161.36 198.627 161.36C199.835 161.36 200.875 161.06 201.747 160.46C202.627 159.852 203.303 159.032 203.775 158C204.255 156.968 204.495 155.804 204.495 154.508C204.495 153.204 204.255 152.04 203.775 151.016C203.295 149.984 202.611 149.172 201.723 148.58C200.843 147.98 199.795 147.68 198.579 147.68C197.779 147.68 197.059 147.816 196.419 148.088C195.779 148.352 195.227 148.724 194.763 149.204V148.04H192.531V166.76ZM198.279 159.092C197.047 159.092 196.151 158.664 195.591 157.808C195.039 156.952 194.763 155.852 194.763 154.508C194.763 153.164 195.039 152.068 195.591 151.22C196.143 150.372 197.011 149.948 198.195 149.948C199.027 149.948 199.711 150.152 200.247 150.56C200.783 150.968 201.179 151.516 201.435 152.204C201.699 152.892 201.831 153.66 201.831 154.508C201.831 155.364 201.703 156.14 201.447 156.836C201.191 157.524 200.799 158.072 200.271 158.48C199.751 158.888 199.087 159.092 198.279 159.092ZM210.085 161.36C212.149 161.36 213.705 160.612 214.753 159.116V161H216.973V153.02C216.973 152.476 216.949 151.968 216.901 151.496C216.853 151.024 216.725 150.576 216.517 150.152C216.117 149.296 215.485 148.672 214.621 148.28C213.765 147.88 212.757 147.68 211.597 147.68C210.101 147.68 208.901 148.008 207.997 148.664C207.093 149.32 206.485 150.204 206.173 151.316L208.513 152.036C208.737 151.316 209.133 150.796 209.701 150.476C210.269 150.156 210.893 149.996 211.573 149.996C212.581 149.996 213.309 150.212 213.757 150.644C214.213 151.068 214.461 151.728 214.501 152.624C213.445 152.768 212.413 152.92 211.405 153.08C210.397 153.232 209.517 153.416 208.765 153.632C207.765 153.952 207.005 154.428 206.485 155.06C205.965 155.692 205.705 156.496 205.705 157.472C205.705 158.176 205.869 158.824 206.197 159.416C206.533 160 207.025 160.472 207.673 160.832C208.329 161.184 209.133 161.36 210.085 161.36ZM210.529 159.308C209.729 159.308 209.137 159.124 208.753 158.756C208.377 158.388 208.189 157.952 208.189 157.448C208.189 156.936 208.357 156.532 208.693 156.236C209.037 155.94 209.465 155.704 209.977 155.528C210.521 155.368 211.161 155.228 211.897 155.108C212.641 154.988 213.501 154.856 214.477 154.712C214.469 155.016 214.449 155.356 214.417 155.732C214.385 156.108 214.317 156.444 214.213 156.74C214.117 157.164 213.913 157.572 213.601 157.964C213.297 158.356 212.885 158.68 212.365 158.936C211.853 159.184 211.241 159.308 210.529 159.308ZM219.609 145.916H222.117V143.48H219.609V145.916ZM219.609 161H222.117V148.04H219.609V161ZM225.001 161H227.533V154.46C227.533 153.7 227.653 152.996 227.893 152.348C228.133 151.7 228.557 151.18 229.165 150.788C229.597 150.508 230.073 150.344 230.593 150.296C231.113 150.248 231.581 150.28 231.997 150.392V148.04C231.413 147.928 230.793 147.932 230.137 148.052C229.489 148.172 228.921 148.412 228.433 148.772C227.953 149.092 227.553 149.536 227.233 150.104V148.04H225.001V161Z" fill="#1E1B1B"/>
<path d="M171.977 80.1367C170.602 80.1367 169.423 79.2872 168.936 78.0859H166.07V75.625H168.936C169.423 74.4237 170.602 73.5742 171.977 73.5742C173.786 73.5742 175.258 75.0462 175.258 76.8555C175.258 78.6647 173.786 80.1367 171.977 80.1367Z" fill="#1E1B1B"/>
<path d="M177.719 87.1094C177.179 87.1094 176.671 86.9778 176.221 86.7462L173.174 89.2852C172.953 89.4694 172.675 89.5703 172.387 89.5703H166.07V87.1094H171.941L174.613 84.8832C174.5 84.5519 174.438 84.1973 174.438 83.8281C174.438 82.0188 175.909 80.5469 177.719 80.5469C179.528 80.5469 181 82.0188 181 83.8281C181 85.6374 179.528 87.1094 177.719 87.1094Z" fill="#1E1B1B"/>
<path d="M177.719 97.3633C176.344 97.3633 175.166 96.5138 174.678 95.3125H166.07V92.8516H174.678C175.166 91.6503 176.344 90.8008 177.719 90.8008C179.528 90.8008 181 92.2727 181 94.082C181 95.8913 179.528 97.3633 177.719 97.3633Z" fill="#1E1B1B"/>
<path d="M173.174 98.879L176.221 101.418C176.671 101.186 177.179 101.055 177.719 101.055C179.528 101.055 181 102.527 181 104.336C181 106.145 179.528 107.617 177.719 107.617C175.909 107.617 174.438 106.145 174.438 104.336C174.438 103.967 174.5 103.612 174.613 103.281L171.941 101.055H166.07V98.5938H172.387C172.675 98.5938 172.953 98.6946 173.174 98.879Z" fill="#1E1B1B"/>
<path d="M171.977 108.027C173.786 108.027 175.258 109.499 175.258 111.309C175.258 113.118 173.786 114.59 171.977 114.59C170.602 114.59 169.423 113.74 168.936 112.539H166.07V110.078H168.936C169.423 108.877 170.602 108.027 171.977 108.027Z" fill="#1E1B1B"/>
<path d="M151.305 94.082C151.305 89.3327 155.169 85.4688 159.918 85.4688C161.238 85.4688 162.49 85.7678 163.609 86.301V101.863C162.49 102.396 161.238 102.695 159.918 102.695C155.169 102.695 151.305 98.8314 151.305 94.082Z" fill="#1E1B1B"/>
<path d="M162.379 115H157.457C156.777 115 156.227 114.449 156.227 113.77V112.168C153.918 111.698 151.708 110.782 149.74 109.481L148.607 110.613C148.126 111.094 147.347 111.094 146.867 110.613L143.387 107.133C142.906 106.653 142.906 105.874 143.387 105.393L144.519 104.26C143.218 102.292 142.302 100.082 141.832 97.7734H140.23C139.551 97.7734 139 97.2225 139 96.543V91.6211C139 90.9415 139.551 90.3906 140.23 90.3906H141.832C142.302 88.0817 143.218 85.8721 144.519 83.9038L143.387 82.771C143.156 82.5402 143.026 82.2273 143.026 81.901C143.026 81.5746 143.156 81.2618 143.387 81.031L146.867 77.5507C147.347 77.0701 148.126 77.0701 148.607 77.5507L149.74 78.6835C151.708 77.3819 153.918 76.4666 156.227 75.9962V74.3945C156.227 73.715 156.777 73.1641 157.457 73.1641H162.379C163.058 73.1641 163.609 73.715 163.609 74.3945V83.6413C162.454 83.2316 161.212 83.0078 159.918 83.0078C153.812 83.0078 148.844 87.9757 148.844 94.082C148.844 100.188 153.812 105.156 159.918 105.156C161.212 105.156 162.454 104.932 163.609 104.523V113.77C163.609 114.449 163.058 115 162.379 115Z" fill="#1E1B1B"/>
</svg>
