<svg width="71" height="72" viewBox="0 0 71 72" fill="none" xmlns="http://www.w3.org/2000/svg">
<ellipse cx="35.1537" cy="35.8291" rx="35.0516" ry="35.2215" fill="#5CBA99"/>
<path d="M51.3972 43.7532V39.4783C51.3972 39.1402 51.3677 38.794 51.3086 38.4398C51.255 38.0802 51.1476 37.7474 50.9866 37.4415C50.831 37.1356 50.6082 36.8887 50.3184 36.7008C50.034 36.513 49.6609 36.419 49.1994 36.419C48.8988 36.419 48.6144 36.47 48.346 36.572C48.0776 36.6686 47.8415 36.8269 47.6375 37.047C47.439 37.267 47.2806 37.5569 47.1626 37.9165C47.0499 38.2761 46.9935 38.7135 46.9935 39.2287L45.9469 38.8342C45.9469 38.0453 46.0945 37.3502 46.3897 36.7491C46.6849 36.1426 47.1089 35.6703 47.6617 35.3322C48.2145 34.9941 48.8827 34.825 49.6663 34.825C50.2674 34.825 50.7719 34.9216 51.1798 35.1148C51.5877 35.3081 51.9178 35.563 52.1701 35.8797C52.4277 36.1909 52.6236 36.5318 52.7577 36.9021C52.8919 37.2724 52.9832 37.6347 53.0315 37.9889C53.0798 38.3431 53.1039 38.6544 53.1039 38.9228V43.7532H51.3972ZM45.2868 43.7532V32.1603H46.7922V38.4156H46.9935V43.7532H45.2868ZM55.2009 43.7532V35.0585H56.6983V37.1678L56.489 36.894C56.5963 36.6149 56.7359 36.36 56.9076 36.1292C57.0793 35.8931 57.2779 35.6999 57.5033 35.5496C57.7234 35.3886 57.9676 35.2651 58.236 35.1792C58.5097 35.088 58.7888 35.0343 59.0732 35.0182C59.3577 34.9968 59.6314 35.0102 59.8944 35.0585V36.6364C59.6099 36.5613 59.2933 36.5398 58.9444 36.572C58.6009 36.6042 58.2843 36.7142 57.9944 36.9021C57.7207 37.0792 57.5033 37.2939 57.3423 37.5461C57.1867 37.7984 57.074 38.0802 57.0042 38.3915C56.9344 38.6974 56.8995 39.0221 56.8995 39.3656V43.7532H55.2009Z" fill="white"/>
<path d="M14.3292 44.7031L14.3413 42.457L21.9129 35.6703C22.5247 35.1309 22.9393 34.6157 23.1567 34.1246C23.3821 33.6335 23.4948 33.1424 23.4948 32.6513C23.4948 32.0314 23.358 31.4759 23.0842 30.9848C22.8105 30.4857 22.4321 30.0912 21.9491 29.8014C21.4661 29.5116 20.9106 29.3666 20.2826 29.3666C19.6386 29.3666 19.0629 29.5196 18.5558 29.8255C18.0566 30.1234 17.6662 30.5219 17.3844 31.0211C17.1026 31.5202 16.9658 32.0596 16.9738 32.6392H14.3896C14.3896 31.5121 14.6432 30.5259 15.1503 29.6806C15.6656 28.8273 16.37 28.1631 17.2636 27.6881C18.1573 27.2051 19.1797 26.9635 20.3309 26.9635C21.4258 26.9635 22.408 27.2131 23.2775 27.7122C24.1469 28.2033 24.8312 28.8796 25.3304 29.741C25.8376 30.6024 26.0912 31.5846 26.0912 32.6875C26.0912 33.4845 25.9865 34.1608 25.7772 34.7163C25.5679 35.2718 25.2539 35.787 24.8353 36.262C24.4166 36.737 23.8933 37.2522 23.2654 37.8077L17.4206 43.0245L17.1429 42.3H26.0912V44.7031H14.3292ZM35.1574 44.7152V41.6841H27.308V39.2931L32.9595 27.3258H35.8457L30.1941 39.2931H35.1574V34.5835H37.7175V39.2931H39.4443V41.6841H37.7175V44.7152H35.1574Z" fill="white"/>
</svg>
